<?xml version="1.0" encoding="UTF-8"?>
<svg version="1.1" xmlns="http://www.w3.org/2000/svg" width="500" height="500">
<path d="M0 0 C1.44632812 -0.02416992 1.44632812 -0.02416992 2.921875 -0.04882812 C20.27282992 -0.06045745 35.84558914 7.92324785 48.625 19.3125 C62.00841644 34.51165434 69.02423083 51.01902313 68.7265625 71.34765625 C68.71556519 72.79211121 68.71556519 72.79211121 68.7043457 74.26574707 C68.68539551 76.61484272 68.65880433 78.9635792 68.625 81.3125 C69.45065964 81.29917633 69.45065964 81.29917633 70.29299927 81.2855835 C76.03572172 81.19690709 81.77824883 81.13668197 87.52148438 81.09277344 C89.66316634 81.07269112 91.8047937 81.04541963 93.94628906 81.01074219 C97.02943415 80.96207602 100.11185262 80.9394971 103.1953125 80.921875 C104.14866486 80.90122986 105.10201721 80.88058472 106.08425903 80.85931396 C111.95734301 80.85734346 115.09229472 81.51738376 119.625 85.3125 C120.2025 85.745625 120.78 86.17875 121.375 86.625 C125.67908599 92.43551609 125.38434171 101.3177486 126.02734375 108.20703125 C126.1505751 109.4672258 126.27380646 110.72742035 126.40077209 112.02580261 C126.72802112 115.38058659 127.04993846 118.73578784 127.36883545 122.09136963 C127.93405024 128.02657027 128.51182629 133.96056629 129.08984375 139.89453125 C129.21704803 141.20167084 129.34425232 142.50881042 129.47531128 143.8555603 C130.59340078 155.22789264 131.89181695 166.57449696 133.22952271 177.92269897 C134.41974244 188.12456927 135.54147735 198.3344265 136.67724609 208.54248047 C136.97472912 211.21544701 137.2732598 213.88829321 137.57275391 216.56103516 C139.35307229 232.45143138 141.07028036 248.34458985 142.59912109 264.2612915 C143.68058423 275.37229655 145.25077141 286.39239462 146.95019531 297.42333984 C151.50741282 327.43587228 151.50741282 327.43587228 146.125 337.25 C142.33728203 342.34227641 137.58385988 345.32621337 131.625 347.3125 C130.14867171 347.40561215 128.6685031 347.44337149 127.18924522 347.44672108 C126.27617273 347.45117892 125.36310023 347.45563676 124.42235887 347.46022969 C122.91553259 347.45995315 122.91553259 347.45995315 121.37826538 347.45967102 C119.77910953 347.46518605 119.77910953 347.46518605 118.1476475 347.4708125 C114.55724847 347.48186994 110.96687837 347.48569669 107.37646484 347.48950195 C104.80937609 347.49576507 102.24228825 347.50241173 99.67520142 347.50941467 C91.95814028 347.52917717 84.24107784 347.53924556 76.52399772 347.54814246 C72.88904067 347.5525262 69.25408508 347.55789283 65.61912918 347.56313133 C53.53383626 347.58014431 41.44854425 347.59463777 29.3632412 347.60188007 C26.22702407 347.60378994 23.09080694 347.60571028 19.95458984 347.60766602 C19.17510607 347.60814976 18.3956223 347.6086335 17.59251781 347.6091319 C4.96961704 347.61742953 -7.65318889 347.64276159 -20.27604826 347.67524669 C-33.23856085 347.7083336 -46.20102526 347.72633035 -59.1635803 347.72952431 C-66.44037785 347.73168803 -73.71703713 347.74041624 -80.99379349 347.76598549 C-87.84084628 347.78998932 -94.68764664 347.7935079 -101.53473282 347.78322411 C-104.0465528 347.78272811 -106.55838494 347.78906726 -109.07016754 347.80278015 C-112.50253121 347.82046888 -115.93399921 347.81340668 -119.36636353 347.80024719 C-120.35753005 347.81121644 -121.34869657 347.82218568 -122.36989844 347.83348733 C-128.86785006 347.77344955 -133.66159826 346.41117305 -139.375 343.3125 C-139.375 342.6525 -139.375 341.9925 -139.375 341.3125 C-140.035 341.3125 -140.695 341.3125 -141.375 341.3125 C-141.375 340.6525 -141.375 339.9925 -141.375 339.3125 C-142.035 339.3125 -142.695 339.3125 -143.375 339.3125 C-149.74532853 329.65425998 -148.34710478 320.22613749 -147.125 309.125 C-146.98472822 307.7904943 -146.8449224 306.45593954 -146.70556641 305.12133789 C-145.76306724 296.23690316 -144.62692481 287.38405314 -143.36254883 278.53979492 C-142.56381967 272.91037736 -141.99283596 267.3133659 -141.63685608 261.63645935 C-141.3541635 258.04800485 -140.92366471 254.49983167 -140.46264648 250.92993164 C-139.41730893 242.73058319 -138.46321639 234.52195089 -137.53515625 226.30859375 C-137.36584901 224.81388749 -137.19653216 223.31918232 -137.02720642 221.82447815 C-136.67440861 218.70769104 -136.32243952 215.59081155 -135.97094727 212.47387695 C-135.61868665 209.35129966 -135.2648353 206.22890967 -134.90942383 203.10668945 C-132.92164751 185.64139062 -131.00706546 168.1751227 -129.37220764 150.6728363 C-128.51895316 141.5639467 -127.49854648 132.48156025 -126.41127014 123.39793396 C-125.79872572 118.27647106 -125.25846053 113.16139143 -124.84765625 108.01953125 C-124.72596069 106.51338257 -124.72596069 106.51338257 -124.60180664 104.97680664 C-124.45558272 103.09793152 -124.31985281 101.21819577 -124.19702148 99.33764648 C-123.75114064 93.58760688 -122.70324117 89.14688055 -118.9375 84.5625 C-115.63355884 81.91934707 -112.9104125 81.06230543 -108.69824219 81.08544922 C-107.31726349 81.08567581 -107.31726349 81.08567581 -105.90838623 81.08590698 C-104.92283752 81.09622955 -103.93728882 81.10655212 -102.921875 81.1171875 C-101.39883759 81.12143234 -101.39883759 81.12143234 -99.84503174 81.12576294 C-96.60490084 81.13694999 -93.36504724 81.16205209 -90.125 81.1875 C-87.92708733 81.1975317 -85.72917032 81.20665722 -83.53125 81.21484375 C-78.14573886 81.23688449 -72.76038924 81.27034749 -67.375 81.3125 C-67.38285522 80.71987869 -67.39071045 80.12725739 -67.39880371 79.51667786 C-67.43030334 76.78848734 -67.44959841 74.0603353 -67.46875 71.33203125 C-67.48131836 70.40007935 -67.49388672 69.46812744 -67.50683594 68.50793457 C-67.60039947 50.68797922 -61.05826836 33.26998803 -48.6496582 20.34033203 C-34.89583816 6.74416912 -19.18472407 -0.06360983 0 0 Z M-33.375 29.3125 C-33.375 29.9725 -33.375 30.6325 -33.375 31.3125 C-34.035 31.3125 -34.695 31.3125 -35.375 31.3125 C-49.05958639 46.38669119 -49.375 61.315951 -49.375 81.3125 C-16.375 81.3125 16.625 81.3125 50.625 81.3125 C50.625 62.86293408 49.68091052 50.39636578 39.625 35.3125 C38.965 35.3125 38.305 35.3125 37.625 35.3125 C37.625 34.6525 37.625 33.9925 37.625 33.3125 C36.965 33.3125 36.305 33.3125 35.625 33.3125 C35.625 32.6525 35.625 31.9925 35.625 31.3125 C34.965 31.3125 34.305 31.3125 33.625 31.3125 C33.625 30.6525 33.625 29.9925 33.625 29.3125 C13.94223619 13.85562939 -13.85330908 12.80865502 -33.375 29.3125 Z M-68.375 104.3125 C-69.31286082 109.36259595 -69.31286082 109.36259595 -68.375 114.3125 C-67.715 114.3125 -67.055 114.3125 -66.375 114.3125 C-66.375 114.9725 -66.375 115.6325 -66.375 116.3125 C-61.91533731 119.28560846 -57.60150675 119.05260388 -52.375 118.3125 C-49.05669647 116.4134044 -49.05669647 116.4134044 -47.375 113.3125 C-46.79057037 110.18487733 -46.79057037 110.18487733 -47.375 107.3125 C-48.035 106.6525 -48.695 105.9925 -49.375 105.3125 C-49.6225 106.281875 -49.87 107.25125 -50.125 108.25 C-51.375 111.3125 -51.375 111.3125 -53.0625 112.1875 C-61.39825581 112.6380814 -61.39825581 112.6380814 -65.375 111.3125 C-66.5625 107.75 -66.5625 107.75 -67.375 104.3125 C-67.705 104.3125 -68.035 104.3125 -68.375 104.3125 Z M68.625 104.3125 C67.9753125 105.735625 67.9753125 105.735625 67.3125 107.1875 C65.625 110.3125 65.625 110.3125 62.625 112.3125 C59.05660753 112.86646415 55.7291612 113.06048017 52.6875 111 C51.625 109.3125 51.625 109.3125 50.625 106.3125 C49.965 106.3125 49.305 106.3125 48.625 106.3125 C47.73943256 108.00223726 47.73943256 108.00223726 47.625 110.3125 C49.64791546 113.92484904 51.16371879 116.0049792 54.625 118.3125 C56.77290929 118.62850189 56.77290929 118.62850189 59.0625 118.5625 C59.82433594 118.56765625 60.58617187 118.5728125 61.37109375 118.578125 C63.83943018 118.2872292 65.482686 117.54225656 67.625 116.3125 C67.625 115.6525 67.625 114.9925 67.625 114.3125 C68.285 114.3125 68.945 114.3125 69.625 114.3125 C70.6339034 110.07603233 70.6339034 110.07603233 69.6875 105.9375 C69.336875 105.40125 68.98625 104.865 68.625 104.3125 Z M-79.58203125 151.03125 C-86.71533653 160.10717654 -87.92942373 170.151075 -87.375 181.3125 C-86.00273565 192.3886337 -79.83873753 201.33749806 -71.375 208.3125 C-61.35325506 215.18359603 -50.46067301 216.99913578 -38.4921875 214.77734375 C-33.31365366 213.32830446 -28.9141546 211.17414094 -24.375 208.3125 C-24.375 207.6525 -24.375 206.9925 -24.375 206.3125 C-23.75625 206.065 -23.1375 205.8175 -22.5 205.5625 C-20.02431313 204.10621361 -19.42374998 202.93437494 -18.375 200.3125 C-17.715 200.3125 -17.055 200.3125 -16.375 200.3125 C-9.54786301 189.01981429 -6.90752528 179.49806802 -9.375 166.3125 C-10.78087221 162.17350124 -12.45781667 158.23883486 -14.375 154.3125 C-15.035 154.3125 -15.695 154.3125 -16.375 154.3125 C-17.365 151.8375 -17.365 151.8375 -18.375 149.3125 C-19.035 149.3125 -19.695 149.3125 -20.375 149.3125 C-20.375 148.6525 -20.375 147.9925 -20.375 147.3125 C-21.035 147.3125 -21.695 147.3125 -22.375 147.3125 C-22.375 146.6525 -22.375 145.9925 -22.375 145.3125 C-30.31137874 138.27753712 -40.18101624 135.67445782 -50.6171875 136.03125 C-62.5247013 137.24561401 -71.35773655 142.4950559 -79.58203125 151.03125 Z M46.625 146.3125 C45.88636719 147.17230469 45.14773438 148.03210938 44.38671875 148.91796875 C43.70222656 149.77003906 43.01773438 150.62210938 42.3125 151.5 C41.61511719 152.35980469 40.91773438 153.21960938 40.19921875 154.10546875 C38.43143572 156.13205226 38.43143572 156.13205226 38.625 158.3125 C37.965 158.3125 37.305 158.3125 36.625 158.3125 C35.32909429 159.90631506 34.11347306 161.56574782 32.9375 163.25 C29.7198583 167.80293359 26.38398377 172.20375441 22.875 176.53515625 C21.43324309 178.22300603 21.43324309 178.22300603 21.625 180.3125 C20.965 180.3125 20.305 180.3125 19.625 180.3125 C18.24497799 182.13837527 16.9481016 184.02722126 15.6875 185.9375 C12.3480461 190.90754663 8.85538919 195.69126735 5.125 200.375 C0.17247564 206.60152152 -4.62696727 212.9280917 -9.375 219.3125 C-10.91541858 221.37593232 -12.45708379 223.43843459 -14 225.5 C-14.73347656 226.48097656 -15.46695313 227.46195312 -16.22265625 228.47265625 C-18.80981129 231.88619838 -21.46895224 235.23834562 -24.16015625 238.5703125 C-25.56566007 240.23193477 -25.56566007 240.23193477 -25.375 242.3125 C-26.035 242.3125 -26.695 242.3125 -27.375 242.3125 C-28.35287546 243.69501358 -29.32057388 245.08641171 -30.22265625 246.51953125 C-31.44971197 248.42874675 -32.77513578 250.23846252 -34.125 252.0625 C-36.56473666 254.92775622 -36.56473666 254.92775622 -36.375 257.3125 C-37.035 257.3125 -37.695 257.3125 -38.375 257.3125 C-39.95818311 259.34323679 -41.42569937 261.37626411 -42.875 263.5 C-47.16198452 269.66689372 -51.66328148 275.59985319 -56.34375 281.47265625 C-58.1970942 284.06377401 -59.36144743 286.31040137 -60.375 289.3125 C-61.035 289.3125 -61.695 289.3125 -62.375 289.3125 C-63.035 290.9625 -63.695 292.6125 -64.375 294.3125 C-65.035 294.3125 -65.695 294.3125 -66.375 294.3125 C-66.375 295.6325 -66.375 296.9525 -66.375 298.3125 C-60.15331351 301.42334325 -49.99956506 300.80682131 -43.375 299.3125 C-37.12552647 295.75488903 -33.74269106 288.85704092 -31.375 282.3125 C-30.715 282.3125 -30.055 282.3125 -29.375 282.3125 C-27.79182452 280.28177299 -26.3246596 278.24846848 -24.875 276.125 C-21.39868892 271.14007703 -17.85226675 266.23804853 -14.125 261.4375 C-13.71008301 260.90125 -13.29516602 260.365 -12.86767578 259.8125 C-11.05333152 257.46991054 -9.23394159 255.13125961 -7.4140625 252.79296875 C-6.86492187 252.07753906 -6.31578125 251.36210937 -5.75 250.625 C-5.28335938 250.02300781 -4.81671875 249.42101562 -4.3359375 248.80078125 C-3.19419061 247.32772392 -3.19419061 247.32772392 -3.375 245.3125 C-2.715 245.3125 -2.055 245.3125 -1.375 245.3125 C-0.0143991 243.82613242 -0.0143991 243.82613242 1.25 241.9375 C1.69601563 241.31101562 2.14203125 240.68453125 2.6015625 240.0390625 C3.79496969 238.36027357 3.79496969 238.36027357 3.625 236.3125 C4.285 236.3125 4.945 236.3125 5.625 236.3125 C8.58735695 232.67926311 8.58735695 232.67926311 9.625 228.3125 C10.285 228.3125 10.945 228.3125 11.625 228.3125 C13.3538446 226.09435976 14.97166947 223.87643531 16.5625 221.5625 C17.44628368 220.29664391 18.33039017 219.03101313 19.21484375 217.765625 C19.62976074 217.16556641 20.04467773 216.56550781 20.47216797 215.94726562 C21.423435 214.59832788 22.42606038 213.28576455 23.44140625 211.984375 C24.81760189 210.38184666 24.81760189 210.38184666 24.625 208.3125 C25.285 208.3125 25.945 208.3125 26.625 208.3125 C28.00045764 206.64014136 28.00045764 206.64014136 29.4375 204.375 C32.68396867 199.60235636 36.10318799 195.00736931 39.625 190.4375 C44.74920666 183.76510294 49.86205575 177.08460183 54.9375 170.375 C55.60201172 169.50439941 56.26652344 168.63379883 56.95117188 167.73681641 C57.56154297 166.92776855 58.17191406 166.1187207 58.80078125 165.28515625 C59.34645752 164.56593994 59.89213379 163.84672363 60.4543457 163.10571289 C61.80721675 161.39029717 61.80721675 161.39029717 61.625 159.3125 C62.285 159.3125 62.945 159.3125 63.625 159.3125 C65.29316239 157.26211212 66.81132614 155.22957324 68.3125 153.0625 C68.74111328 152.47597656 69.16972656 151.88945312 69.61132812 151.28515625 C72.0252194 147.93146996 72.0252194 147.93146996 72.45703125 143.953125 C71.73518371 142.319078 71.73518371 142.319078 70.625 141.3125 C67.55219621 140.97923325 64.4635507 140.98753543 61.375 140.9375 C60.51519531 140.90011719 59.65539062 140.86273438 58.76953125 140.82421875 C52.89449244 140.74274672 50.37802264 141.44646522 46.625 146.3125 Z M27.625 234.3125 C26.38635833 236.42174917 26.38635833 236.42174917 25.625 238.3125 C24.965 238.3125 24.305 238.3125 23.625 238.3125 C17.26693613 249.36913309 13.05051517 259.53674393 16.453125 272.45703125 C17.92223367 276.55189759 19.6409863 280.44277958 21.625 284.3125 C22.285 284.3125 22.945 284.3125 23.625 284.3125 C23.9034375 285.364375 23.9034375 285.364375 24.1875 286.4375 C28.04348188 294.14946377 36.81388814 298.48798723 44.625 301.3125 C57.91285069 303.82324306 68.3530398 301.55010271 79.625 294.3125 C88.96231073 287.58682806 92.93322548 277.44212118 95.5 266.625 C96.41889718 257.0531544 92.99414437 247.10746261 87.625 239.3125 C86.92375 238.28125 86.2225 237.25 85.5 236.1875 C81.69782765 231.8815698 76.5748724 229.10473571 71.625 226.3125 C70.98820312 225.94640625 70.35140625 225.5803125 69.6953125 225.203125 C55.87134351 218.69049961 37.92969756 223.98515475 27.625 234.3125 Z " fill="#2E3939" transform="translate(249.375,69.6875)"/>
<path d="M0 0 C3.0625 2.125 3.0625 2.125 4.0625 5.125 C4.7225 5.125 5.3825 5.125 6.0625 5.125 C9.40899791 10.50616864 8.63575095 17.03863188 8.0625 23.125 C5.95119839 27.66038865 3.15697668 30.2903623 -0.9375 33.125 C-6.89755735 35.11168578 -13.60530719 35.11371422 -19.375 32.5 C-23.09964091 30.2942188 -25.11571731 28.13292191 -26.9375 24.125 C-28.12331907 18.23104001 -28.74726765 12.61681859 -25.9375 7.125 C-24.39227071 4.90948913 -22.81633995 3.09778194 -20.9375 1.125 C-20.2775 1.125 -19.6175 1.125 -18.9375 1.125 C-18.9375 0.465 -18.9375 -0.195 -18.9375 -0.875 C-12.06869878 -3.30770043 -6.55568721 -3.48564146 0 0 Z " fill="#343E3F" transform="translate(210.9375,229.875)"/>
<path d="M0 0 C2.4609375 1.02734375 2.4609375 1.02734375 4 2 C4 2.66 4 3.32 4 4 C4.99 4.33 5.98 4.66 7 5 C10.18418798 9.96264749 11.83942054 15.12405622 11 21 C8.88023125 27.65403345 6.25844016 31.52040193 0.1484375 35.078125 C-4.73587018 37.17393702 -10.30991199 36.55252877 -15.25 34.9375 C-19.30523038 32.08040587 -22.76585617 28.46828766 -25 24 C-25.48887732 18.19758722 -25.85545438 12.84251714 -23.375 7.5 C-22.199375 6.2625 -22.199375 6.2625 -21 5 C-20.236875 4.05125 -19.47375 3.1025 -18.6875 2.125 C-13.82827605 -1.77995775 -5.81283748 -0.62327264 0 0 Z " fill="#333D3D" transform="translate(312,315)"/>
<path d="M0 0 C0.33 0.66 0.66 1.32 1 2 C0.06833174 4.03273074 -0.9349985 6.03384339 -2 8 C-2.33 8.66 -2.66 9.32 -3 10 C-3.99 10 -4.98 10 -6 10 C-5.67 10.66 -5.34 11.32 -5 12 C-4.34 11.67 -3.68 11.34 -3 11 C-3.66 13.31 -4.32 15.62 -5 18 C-7.16874252 17.49396008 -8.99967627 17.00016187 -11 16 C-11.33 16.99 -11.66 17.98 -12 19 C-12.66 18.67 -13.32 18.34 -14 18 C-11.85536521 15.18658422 -9.70909177 12.37442284 -7.5625 9.5625 C-6.95083984 8.76005859 -6.33917969 7.95761719 -5.70898438 7.13085938 C-5.12568359 6.36708984 -4.54238281 5.60332031 -3.94140625 4.81640625 C-3.40201416 4.10943604 -2.86262207 3.40246582 -2.30688477 2.67407227 C-1 1 -1 1 0 0 Z " fill="#404748" transform="translate(234,332)"/>
<path d="M0 0 C0.99 0.99 1.98 1.98 3 3 C0.53846154 8.66153846 0.53846154 8.66153846 -2.1875 10.375 C-2.785625 10.58125 -3.38375 10.7875 -4 11 C-4.99 10.01 -5.98 9.02 -7 8 C-5.35 7.67 -3.7 7.34 -2 7 C-2.04125 6.21625 -2.0825 5.4325 -2.125 4.625 C-2 2 -2 2 0 0 Z " fill="#4D5253" transform="translate(316,171)"/>
<path d="M0 0 C1.32 0.66 2.64 1.32 4 2 C3.01 3.32 2.02 4.64 1 6 C1.66 7.32 2.32 8.64 3 10 C2.01 10.495 2.01 10.495 1 11 C0.67 9.68 0.34 8.36 0 7 C-0.66 7 -1.32 7 -2 7 C-2.66 5.68 -3.32 4.36 -4 3 C-2.68 2.01 -1.36 1.02 0 0 Z " fill="#464C4B" transform="translate(235,217)"/>
<path d="M0 0 C0.66 0.33 1.32 0.66 2 1 C2 1.99 2 2.98 2 4 C2.66 4.33 3.32 4.66 4 5 C3.34 5 2.68 5 2 5 C1.34 6.32 0.68 7.64 0 9 C-0.99 9 -1.98 9 -3 9 C-2.25 2.25 -2.25 2.25 0 0 Z " fill="#474E4F" transform="translate(212,96)"/>
<path d="M0 0 C0.33 0.66 0.66 1.32 1 2 C0.06833174 4.03273074 -0.9349985 6.03384339 -2 8 C-2.33 8.66 -2.66 9.32 -3 10 C-5.5625 10.625 -5.5625 10.625 -8 11 C-7.04454634 9.53977837 -6.08553322 8.08188532 -5.125 6.625 C-4.59132812 5.81289063 -4.05765625 5.00078125 -3.5078125 4.1640625 C-2 2 -2 2 0 0 Z " fill="#5C605B" transform="translate(234,332)"/>
<path d="M0 0 C3.40739705 2.24578442 6.76478258 4.51137122 10 7 C9.67 7.66 9.34 8.32 9 9 C7.35 8.67 5.7 8.34 4 8 C3.67 7.01 3.34 6.02 3 5 C1.00334686 3.31461399 1.00334686 3.31461399 -1 2 C-0.67 1.34 -0.34 0.68 0 0 Z " fill="#484E4B" transform="translate(288,82)"/>
<path d="M0 0 C0.75 1.6875 0.75 1.6875 1 4 C-1.7809893 8.63498216 -5.33957379 10.58016331 -10 13 C-10 12.34 -10 11.68 -10 11 C-8.34997172 9.64613064 -6.6825613 8.31321858 -5 7 C-4.67 6.34 -4.34 5.68 -4 5 C-3.34 5 -2.68 5 -2 5 C-1.34 3.35 -0.68 1.7 0 0 Z " fill="#696D6B" transform="translate(235,265)"/>
<path d="M0 0 C0.66 0.33 1.32 0.66 2 1 C1.360625 2.051875 0.72125 3.10375 0.0625 4.1875 C-1.61754452 7.10828412 -2.58996052 9.6171743 -3 13 C-3.99 12.01 -4.98 11.02 -6 10 C-4.34832443 6.4213696 -2.21713508 3.25179812 0 0 Z " fill="#575D5B" transform="translate(218,352)"/>
<path d="M0 0 C0.66 0.33 1.32 0.66 2 1 C1.67 2.65 1.34 4.3 1 6 C0.01 5.67 -0.98 5.34 -2 5 C-2.66 6.32 -3.32 7.64 -4 9 C-4.66 8.67 -5.32 8.34 -6 8 C-5.67 6.68 -5.34 5.36 -5 4 C-4.34 4 -3.68 4 -3 4 C-2.67 3.01 -2.34 2.02 -2 1 C-1.34 0.67 -0.68 0.34 0 0 Z " fill="#434847" transform="translate(316,225)"/>
<path d="M0 0 C0.66 0.99 1.32 1.98 2 3 C0.35 4.65 -1.3 6.3 -3 8 C-2.01 8.33 -1.02 8.66 0 9 C-2.31 9.66 -4.62 10.32 -7 11 C-5.5140084 6.40693504 -3.14985318 3.56430755 0 0 Z " fill="#696E69" transform="translate(245,317)"/>
<path d="M0 0 C0.33 0.99 0.66 1.98 1 3 C1.99 2.67 2.98 2.34 4 2 C4.33 3.65 4.66 5.3 5 7 C4.01 7.495 4.01 7.495 3 8 C2.34 7.34 1.68 6.68 1 6 C-1.06874034 5.3574765 -1.06874034 5.3574765 -3 5 C-3 4.34 -3 3.68 -3 3 C-2.34 3 -1.68 3 -1 3 C-0.67 2.01 -0.34 1.02 0 0 Z " fill="#464E4F" transform="translate(249,312)"/>
<path d="M0 0 C0.33 1.32 0.66 2.64 1 4 C0.34 4 -0.32 4 -1 4 C-1 5.32 -1 6.64 -1 8 C-2.98 8.66 -4.96 9.32 -7 10 C-6.02223933 8.51990357 -5.0427506 7.04094856 -4.0625 5.5625 C-3.51722656 4.73878906 -2.97195313 3.91507812 -2.41015625 3.06640625 C-1 1 -1 1 0 0 Z " fill="#5C5E5C" transform="translate(292,255)"/>
<path d="M0 0 C0.33 0 0.66 0 1 0 C1.33 5.28 1.66 10.56 2 16 C-0.7982571 12.26899054 -2 10.49421532 -2 6 C-1.34 6 -0.68 6 0 6 C0 4.02 0 2.04 0 0 Z " fill="#727571" transform="translate(373,165)"/>
<path d="M0 0 C0.99 0 1.98 0 3 0 C2.1875 1.9375 2.1875 1.9375 1 4 C0.01 4.33 -0.98 4.66 -2 5 C-2.73323796 7.01508358 -2.73323796 7.01508358 -3 9 C-3.66 8.67 -4.32 8.34 -5 8 C-4 6 -3 4 -2 2 C-1.34 2 -0.68 2 0 2 C0 1.34 0 0.68 0 0 Z " fill="#545858" transform="translate(255,304)"/>
<path d="M0 0 C1.32 0.33 2.64 0.66 4 1 C3.25 2.9375 3.25 2.9375 2 5 C-0.125 5.75 -0.125 5.75 -2 6 C-1.34 4.02 -0.68 2.04 0 0 Z " fill="#404544" transform="translate(195,97)"/>
<path d="M0 0 C1.32 0.33 2.64 0.66 4 1 C1.36 2.98 -1.28 4.96 -4 7 C-4 4 -4 4 -2.25 1.75 C-1.5075 1.1725 -0.765 0.595 0 0 Z " fill="#4D504D" transform="translate(294,317)"/>
<path d="M0 0 C2.91517292 1.07401108 4.77810176 1.77810176 7 4 C4.69 4.33 2.38 4.66 0 5 C-0.66 4.01 -1.32 3.02 -2 2 C-1.34 2 -0.68 2 0 2 C0 1.34 0 0.68 0 0 Z " fill="#4C5250" transform="translate(178,278)"/>
<path d="M0 0 C0.33 0.99 0.66 1.98 1 3 C1.66 3 2.32 3 3 3 C3 3.66 3 4.32 3 5 C3.99 5.33 4.98 5.66 6 6 C6 6.99 6 7.98 6 9 C5.01 8.67 4.02 8.34 3 8 C3 7.34 3 6.68 3 6 C2.34 6 1.68 6 1 6 C0.34 4.35 -0.32 2.7 -1 1 C-0.67 0.67 -0.34 0.34 0 0 Z " fill="#545757" transform="translate(180,181)"/>
<path d="M0 0 C3.125 0.375 3.125 0.375 6 1 C4.35 2.32 2.7 3.64 1 5 C0.01 4.01 -0.98 3.02 -2 2 C-1.34 1.34 -0.68 0.68 0 0 Z " fill="#404745" transform="translate(276,299)"/>
<path d="M0 0 C0.66 0.33 1.32 0.66 2 1 C1.67 1.99 1.34 2.98 1 4 C1.66 4.33 2.32 4.66 3 5 C0.69 5.33 -1.62 5.66 -4 6 C-3.34 4.68 -2.68 3.36 -2 2 C-1.34 2 -0.68 2 0 2 C0 1.34 0 0.68 0 0 Z " fill="#484F4F" transform="translate(207,258)"/>
<path d="M0 0 C0.99 0.33 1.98 0.66 3 1 C2.34 2.32 1.68 3.64 1 5 C0.01 4.67 -0.98 4.34 -2 4 C-4.16715557 4.87483915 -4.16715557 4.87483915 -6 6 C-4 4 -2 2 0 0 Z " fill="#4D504F" transform="translate(210,82)"/>
<path d="M0 0 C0.33 0.66 0.66 1.32 1 2 C1.66 2 2.32 2 3 2 C3 2.66 3 3.32 3 4 C-1.38461538 7 -1.38461538 7 -4 7 C-2.79618552 4.50638429 -1.54571278 2.31856917 0 0 Z " fill="#595D5B" transform="translate(307,235)"/>
<path d="M0 0 C0.66 0.33 1.32 0.66 2 1 C0.75023244 4.65316671 0.32901247 5.78065836 -3 8 C-3 6.68 -3 5.36 -3 4 C-2.01 3.67 -1.02 3.34 0 3 C0 2.01 0 1.02 0 0 Z " fill="#5C5C5B" transform="translate(297,210)"/>
<path d="M0 0 C0.99 0 1.98 0 3 0 C1.70700306 2.88437779 0.34058637 4.87219421 -2 7 C-2 5.35 -2 3.7 -2 2 C-1.34 2 -0.68 2 0 2 C0 1.34 0 0.68 0 0 Z " fill="#565B58" transform="translate(277,236)"/>
<path d="M0 0 C3.465 1.98 3.465 1.98 7 4 C3.94736336 4.98120464 2.05263664 4.98120464 -1 4 C-0.67 2.68 -0.34 1.36 0 0 Z " fill="#656865" transform="translate(280,363)"/>
<path d="M0 0 C1.32 0.66 2.64 1.32 4 2 C4 2.99 4 3.98 4 5 C2.0625 4.6875 2.0625 4.6875 0 4 C-0.33 3.01 -0.66 2.02 -1 1 C-0.67 0.67 -0.34 0.34 0 0 Z " fill="#454B49" transform="translate(274,359)"/>
<path d="M0 0 C0.99 0.33 1.98 0.66 3 1 C2.34 1 1.68 1 1 1 C1.66 2.65 2.32 4.3 3 6 C1.68 6.33 0.36 6.66 -1 7 C-0.67 4.69 -0.34 2.38 0 0 Z M2 2 C4 3 4 3 4 3 Z " fill="#272E2C" transform="translate(323,212)"/>
</svg>
